<svg xmlns:mydata="http://www.w3.org/2000/svg" mydata:contrastcolor="ffffff" mydata:template="Default" mydata:presentation="2.5" mydata:layouttype="undefined" mydata:specialfontid="undefined" mydata:id1="753" mydata:id2="108" mydata:companyname="Cap.EZ" xmlns="http://www.w3.org/2000/svg" viewBox="0 0 550 470" version="1.1" xmlns:xlink="http://www.w3.org/1999/xlink"><g data-paper-data="{&quot;isGlobalGroup&quot;:true,&quot;bounds&quot;:{&quot;x&quot;:65.00000000000001,&quot;y&quot;:214.70947991151453,&quot;width&quot;:420,&quot;height&quot;:40.58104017697096}}" fill="#000" stroke-miterlimit="10" font-family="none" font-weight="none" font-size="none" text-anchor="none" style="mix-blend-mode:normal"><g data-paper-data="{&quot;isPrimaryText&quot;:true}"><path d="M164.822 225.667h41.09v-10.958h-41.09c-10.766 0-19.558 8.792-19.558 19.622v1.21c0 10.83 8.792 19.558 19.558 19.558h41.09v-10.893h-41.09c-4.714 0-8.6-3.887-8.6-8.664v-1.21c0-4.779 3.886-8.665 8.6-8.665z" data-paper-data="{&quot;glyphName&quot;:&quot;C&quot;,&quot;glyphIndex&quot;:0,&quot;firstGlyphOfWord&quot;:true,&quot;word&quot;:1}"></path><path d="M258.662 255.1h12.74l-23.889-40.2-13.06-.063-23.444 40.262h11.722l4.97-8.345h26.183zm-25.42-17.647 7.71-13.06 7.517 13.06z" data-paper-data="{&quot;glyphName&quot;:&quot;A&quot;,&quot;glyphIndex&quot;:1,&quot;word&quot;:1}"></path><path d="M322.495 214.71H276.5v40.39h10.958v-10.321l35.102.064c3.759 0 7.581-1.657 10.384-4.46 2.93-2.93 4.524-6.753 4.524-10.83 0-8.473-6.435-14.843-14.971-14.843zm2.74 17.901c-.765.828-1.784 1.274-2.676 1.274l-35.102-.064v-8.154h35.038c.956 0 4.078.255 4.078 3.886 0 1.53-.828 2.612-1.338 3.058z" data-paper-data="{&quot;glyphName&quot;:&quot;P&quot;,&quot;glyphIndex&quot;:2,&quot;word&quot;:1}"></path><path d="M342.563 255.29h10.958v-5.16h-10.958z" data-paper-data="{&quot;glyphName&quot;:&quot;.&quot;,&quot;glyphIndex&quot;:3,&quot;word&quot;:1}"></path><path d="M358.617 234.204v1.465a19.386 19.386 0 0 0 19.43 19.43h40.964v-10.893h-40.963c-2.93 0-5.543-1.53-7.072-3.823l43.575.128.064-10.958-43.639-.127c1.53-2.23 4.141-3.759 7.072-3.759h39.561v-10.958h-39.561c-10.767 0-19.43 8.728-19.43 19.495z" data-paper-data="{&quot;glyphName&quot;:&quot;E&quot;,&quot;glyphIndex&quot;:4,&quot;word&quot;:1}"></path><path d="M484.82 219.042c-.701-2.549-2.995-4.333-5.607-4.333h-54.915v10.958h35.421l-32.681 18.666c-2.294 1.274-3.377 3.95-2.74 6.498a5.793 5.793 0 0 0 5.607 4.268h54.787v-10.893H449.4l32.681-18.666c2.294-1.275 3.377-3.95 2.74-6.498z" data-paper-data="{&quot;glyphName&quot;:&quot;Z&quot;,&quot;glyphIndex&quot;:5,&quot;lastGlyphOfWord&quot;:true,&quot;word&quot;:1}"></path></g><g data-paper-data="{&quot;initialText&quot;:&quot;c&quot;,&quot;fillRule&quot;:&quot;nonzero&quot;,&quot;selectedEffects&quot;:{&quot;container&quot;:&quot;&quot;,&quot;transformation&quot;:&quot;&quot;,&quot;pattern&quot;:&quot;&quot;},&quot;bounds&quot;:{&quot;x&quot;:65.00000000000001,&quot;y&quot;:214.70947991151453,&quot;width&quot;:33.07846445752732,&quot;height&quot;:40.58104017697096},&quot;isIcon&quot;:&quot;true&quot;,&quot;iconType&quot;:&quot;initial&quot;,&quot;iconStyle&quot;:&quot;standalone&quot;,&quot;rawInitialId&quot;:294,&quot;suitableAsStandaloneIcon&quot;:true}"><path d="M93.816 236.487c-5.398 7.198-15.059 12.407-18.184 10.702-9.282-5.02 2.273-27.845 10.892-25.288 3.22.947-.19 8.05-3.22 9.187 8.808 5.399 19.226-12.218 8.334-15.817-17.238-5.588-35.99 32.202-21.405 39.021 10.797 5.115 23.867-10.797 26.993-16.669 2.368-4.357-.663-4.83-3.41-1.136z" data-paper-data="{&quot;isPathIcon&quot;:true}"></path></g><path d="M116.953 255.29v-40.58h1.853v40.58z" data-paper-data="{&quot;isShapeTextSeparator&quot;:true}"></path></g></svg>